<svg xmlns="http://www.w3.org/2000/svg" width="1737" height="1737" viewBox="0 0 1737 1737">
  <defs>
    <style>
      .cls-1 {
        fill: #f97068;
        fill-rule: evenodd;
      }
    </style>
  </defs>
  <path id="Forma_3" data-name="Forma 3" class="cls-1" d="M868.5,1738.64C387.6,1738.64-3.635,1348.3-3.635,868.5S387.6-1.636,868.5-1.636,1740.63,388.706,1740.63,868.5,1349.4,1738.64,868.5,1738.64Zm0-1560.382c-381.486,0-691.828,309.655-691.828,690.242S487.014,1558.75,868.5,1558.75c381.47,0,691.81-309.66,691.81-690.25S1249.97,178.258,868.5,178.258Zm0,1223.762c-294.849,0-534.741-239.35-534.741-533.52S573.651,334.985,868.5,334.985,1403.24,574.327,1403.24,868.5,1163.35,1402.02,868.5,1402.02Zm0-897.651c-201.252,0-364.968,163.34-364.968,364.131S667.248,1232.64,868.5,1232.64s364.97-163.34,364.97-364.14S1069.76,504.369,868.5,504.369Zm0,571.561c-114.64,0-207.9-93.053-207.9-207.43,0-114.353,93.265-207.4,207.9-207.4,114.62,0,207.88,93.051,207.88,207.4C1076.38,982.877,983.12,1075.93,868.5,1075.93Z"/>
</svg>
