<svg xmlns="http://www.w3.org/2000/svg" width="417" height="417" viewBox="0 0 417 417">
  <defs>
    <style>
      .cls-1 {
        stroke: #000;
        stroke-width: 14.04px;
        fill-rule: evenodd;
      }
    </style>
  </defs>
  <path id="Forma_1" data-name="Forma 1" class="cls-1" d="M317.866,72.285c0,36.783-15.628,62.763-32.526,88.135-3.763,5.708,1.254,9.5,5.629,5.066,11.269-11.42,26.9-26,61.945-26,37.543,0,65.075,32.975,65.075,96.375,0,68.488-41.289,119.2-87.589,119.2-45.06,0-88.236-41.854-100.743-69.117-4.392-9.5-8.137-15.848-12.533-15.848-3.112,0-4.366,3.8-4.366,8.879,0,57.076,23.774,110.516,51.2,125.627,0.881,0.486,8.178,7.312-5.292,10.237-11.065,2.437-84.189,8.287-108.05-6.975-3.08-1.97.09-6.22,3.129-6.975,38.051-9.448,45.881-95.289,45.881-128.251,0-5.075-1.254-8.887-5-8.887-4.4,0-6.887,4.455-9.4,9.52-14.391,29.8-47.55,69.1-97.609,69.1S0.011,284.042.011,228.253,30.051,126.812,72.6,126.812c25.023,0,51.313,16.485,67.565,26.634,4.392,2.533,7.517-2.541,3.138-5.717-26.906-19.655-35.668-42.478-35.668-76.706,0-22.831,22.532-71.012,102.613-71.012C290.348,0.011,317.866,31.7,317.866,72.285Z"/>
</svg>
