<svg xmlns="http://www.w3.org/2000/svg" width="417" height="417" viewBox="0 0 417 417">
  <defs>
    <style>
      .cls-1 {
        fill-rule: evenodd;
      }
    </style>
  </defs>
  <path id="Forma_3" data-name="Forma 3" class="cls-1" d="M295.648,90.611c-44.1-30.447-81.875-73.232-86.423-90.587C203.91,17.737,170,59.344,122.353,89.761,73.218,121.123-.583,150.447-0.022,228.9,0.955,366.791,144.3,398.31,202.913,289.626c-1.614,36.213-11.291,103-45.125,111.078-3.006.717-6.143,4.76-3.1,6.639,23.606,14.52,95.951,8.954,106.9,6.631,13.327-2.779,6.107-9.274,5.234-9.739-25.874-13.711-48.45-60.608-50.484-112.036,57.708,101.1,200.71,74.431,201.681-62.445C418.582,151.3,343.872,123.9,295.648,90.611Z"/>
</svg>
